<?xml version="1.0" standalone="no"?>
<!DOCTYPE svg PUBLIC "-//W3C//DTD SVG 20010904//EN"
 "http://www.w3.org/TR/2001/REC-SVG-20010904/DTD/svg10.dtd">
<svg version="1.0" xmlns="http://www.w3.org/2000/svg"
 width="512.000000pt" height="512.000000pt" viewBox="0 0 512.000000 512.000000"
 preserveAspectRatio="xMidYMid meet">
<metadata>
Created by potrace 1.11, written by Peter Selinger 2001-2013
</metadata>
<g transform="translate(0.000000,512.000000) scale(0.100000,-0.100000)"
fill="#000000" stroke="none">
<path d="M4526 4187 c-23 -29 -60 -94 -198 -342 -28 -49 -62 -110 -76 -135
-14 -25 -35 -63 -47 -85 -12 -22 -86 -155 -165 -295 -78 -140 -156 -280 -173
-310 -48 -88 -148 -204 -214 -249 -55 -37 -193 -102 -294 -137 -81 -28 -101
-32 -125 -22 -25 9 -45 5 -131 -24 l-102 -35 -12 51 c-17 71 -63 195 -100 269
-30 59 -115 196 -128 207 -3 3 -19 22 -34 43 -16 21 -56 65 -90 99 -438 433
-1104 525 -1629 223 -349 -201 -576 -516 -663 -920 -23 -103 -28 -362 -10
-460 7 -38 16 -86 20 -105 11 -62 64 -208 104 -290 167 -342 484 -605 852
-708 139 -40 197 -47 374 -46 165 0 196 4 335 40 553 144 967 638 1007 1199 3
45 11 84 18 90 7 6 72 30 144 54 119 40 133 47 137 71 5 22 21 32 125 74 140
57 314 155 383 217 27 24 63 65 80 90 139 208 174 264 218 353 44 87 104 193
138 246 6 8 13 22 17 30 4 8 27 49 51 90 25 41 85 149 134 240 49 91 93 172
98 180 5 8 18 31 28 50 46 89 81 140 140 208 l64 72 -125 0 -126 0 -25 -33z
m-2758 -1790 c56 -54 63 -132 16 -195 -89 -117 -274 -59 -274 86 0 138 159
205 258 109z"/>
</g>
</svg>
